<svg width="48" height="48" viewBox="0 0 48 48" fill="none" xmlns="http://www.w3.org/2000/svg">
<path d="M0 5.33333C0 3.91885 0.561903 2.56229 1.5621 1.5621C2.56229 0.561903 3.91885 0 5.33333 0H42.6667C44.0812 0 45.4377 0.561903 46.4379 1.5621C47.4381 2.56229 48 3.91885 48 5.33333V42.6667C48 44.0812 47.4381 45.4377 46.4379 46.4379C45.4377 47.4381 44.0812 48 42.6667 48H5.33333C3.91885 48 2.56229 47.4381 1.5621 46.4379C0.561903 45.4377 0 44.0812 0 42.6667V5.33333ZM42.6667 5.33333H5.33333V42.6667H42.6667V5.33333ZM24 10.6667C24.7072 10.6667 25.3855 10.9476 25.8856 11.4477C26.3857 11.9478 26.6667 12.6261 26.6667 13.3333V34.6667C26.6667 35.3739 26.3857 36.0522 25.8856 36.5523C25.3855 37.0524 24.7072 37.3333 24 37.3333C23.2928 37.3333 22.6145 37.0524 22.1144 36.5523C21.6143 36.0522 21.3333 35.3739 21.3333 34.6667V13.3333C21.3333 12.6261 21.6143 11.9478 22.1144 11.4477C22.6145 10.9476 23.2928 10.6667 24 10.6667ZM34.6667 16C35.3739 16 36.0522 16.281 36.5523 16.781C37.0524 17.2811 37.3333 17.9594 37.3333 18.6667V34.6667C37.3333 35.3739 37.0524 36.0522 36.5523 36.5523C36.0522 37.0524 35.3739 37.3333 34.6667 37.3333C33.9594 37.3333 33.2811 37.0524 32.7811 36.5523C32.281 36.0522 32 35.3739 32 34.6667V18.6667C32 17.9594 32.281 17.2811 32.7811 16.781C33.2811 16.281 33.9594 16 34.6667 16ZM13.3333 21.3333C14.0406 21.3333 14.7189 21.6143 15.219 22.1144C15.719 22.6145 16 23.2928 16 24V34.6667C16 35.3739 15.719 36.0522 15.219 36.5523C14.7189 37.0524 14.0406 37.3333 13.3333 37.3333C12.6261 37.3333 11.9478 37.0524 11.4477 36.5523C10.9476 36.0522 10.6667 35.3739 10.6667 34.6667V24C10.6667 23.2928 10.9476 22.6145 11.4477 22.1144C11.9478 21.6143 12.6261 21.3333 13.3333 21.3333Z" fill="#36423C"/>
</svg>
