<svg width="56" height="54" viewBox="0 0 56 54" fill="none" xmlns="http://www.w3.org/2000/svg">
<path d="M11.782 41.048C11.7913 41.104 11.796 41.16 11.796 41.216C11.8053 41.2627 11.81 41.3187 11.81 41.384C11.81 41.496 11.7773 41.5987 11.712 41.692C11.684 41.7387 11.6467 41.7853 11.6 41.832C11.5533 41.8693 11.4973 41.902 11.432 41.93C11.1987 42.0607 10.9513 42.1073 10.69 42.07C10.5593 42.0327 10.4427 41.972 10.34 41.888C10.3213 41.8693 10.3073 41.86 10.298 41.86C10.2887 41.8507 10.2793 41.8367 10.27 41.818C10.2607 41.8087 10.2513 41.7993 10.242 41.79C10.2327 41.7713 10.2187 41.7573 10.2 41.748C10.1533 41.7013 10.116 41.6593 10.088 41.622C10.06 41.5753 10.032 41.5287 10.004 41.482C9.98532 41.4353 9.96198 41.3933 9.93398 41.356C9.91532 41.3093 9.89198 41.2627 9.86398 41.216C9.84532 41.1787 9.82665 41.146 9.80798 41.118C9.78932 41.0807 9.77532 41.0433 9.76598 41.006C9.72865 40.922 9.70532 40.8473 9.69598 40.782L9.40198 40.096C8.75798 40.096 8.11398 40.1007 7.46998 40.11C6.83532 40.11 6.19598 40.1053 5.55198 40.096L5.25798 40.782C5.23932 40.8193 5.22532 40.8567 5.21598 40.894C5.21598 40.9313 5.20665 40.9687 5.18798 41.006C5.16932 41.0433 5.15065 41.0807 5.13198 41.118C5.12265 41.146 5.10865 41.1787 5.08998 41.216C5.06198 41.2627 5.03398 41.3093 5.00598 41.356C4.98732 41.3933 4.96398 41.4353 4.93598 41.482C4.91732 41.5287 4.89398 41.5753 4.86598 41.622C4.83798 41.6593 4.80065 41.7013 4.75398 41.748C4.73532 41.7573 4.72132 41.7713 4.71198 41.79C4.70265 41.7993 4.69332 41.8087 4.68398 41.818C4.67465 41.8367 4.66532 41.8507 4.65598 41.86C4.64665 41.86 4.63265 41.8693 4.61398 41.888C4.51132 41.972 4.39465 42.0327 4.26398 42.07C4.00265 42.1073 3.75532 42.0607 3.52198 41.93C3.45665 41.902 3.40065 41.8693 3.35398 41.832C3.30732 41.7853 3.26998 41.7387 3.24198 41.692C3.17665 41.5987 3.14398 41.496 3.14398 41.384C3.14398 41.3187 3.14398 41.2627 3.14398 41.216C3.15332 41.16 3.16265 41.104 3.17198 41.048C3.19065 40.964 3.21398 40.88 3.24198 40.796C3.26998 40.712 3.28398 40.67 3.28398 40.67L6.19598 33.502L6.27998 33.278C6.29865 33.222 6.32198 33.1707 6.34998 33.124C6.37798 33.0773 6.40132 33.0213 6.41998 32.956C6.46665 32.8347 6.51798 32.7273 6.57398 32.634C6.60198 32.578 6.63465 32.5267 6.67198 32.48C6.70932 32.4333 6.74665 32.3867 6.78398 32.34C6.83998 32.2653 6.91932 32.2047 7.02198 32.158C7.15265 32.1113 7.30198 32.088 7.46998 32.088C7.64732 32.088 7.80132 32.1113 7.93198 32.158C8.03465 32.2047 8.11398 32.2653 8.16998 32.34C8.23532 32.424 8.30532 32.522 8.37998 32.634C8.43598 32.7273 8.48732 32.8347 8.53398 32.956C8.55265 33.0213 8.57598 33.0773 8.60398 33.124C8.63198 33.1707 8.65532 33.222 8.67398 33.278L8.75798 33.502L11.67 40.67C11.67 40.67 11.684 40.712 11.712 40.796C11.74 40.88 11.7633 40.964 11.782 41.048ZM8.46398 37.618C8.34265 37.3473 8.21665 37.0673 8.08598 36.778C7.96465 36.4887 7.83398 36.1947 7.69398 35.896C7.65665 35.812 7.61932 35.728 7.58198 35.644C7.54465 35.5507 7.50732 35.462 7.46998 35.378C7.44198 35.462 7.40932 35.5507 7.37198 35.644C7.33465 35.728 7.29732 35.812 7.25998 35.896C7.11998 36.1947 6.98465 36.4887 6.85398 36.778C6.73265 37.0673 6.61132 37.3473 6.48998 37.618L6.23798 38.234H8.71598L8.46398 37.618ZM12.947 37.002C12.947 36.7873 12.9424 36.5587 12.933 36.316C12.933 36.0733 12.975 35.854 13.059 35.658C13.1337 35.4807 13.255 35.3547 13.423 35.28C13.6004 35.196 13.773 35.1773 13.941 35.224C14.109 35.252 14.2397 35.3033 14.333 35.378C14.4264 35.4527 14.4917 35.5413 14.529 35.644C14.5757 35.7373 14.6037 35.8493 14.613 35.98C14.6224 36.1013 14.6317 36.2227 14.641 36.344C14.7344 36.176 14.851 36.0407 14.991 35.938C15.131 35.8353 15.2757 35.7513 15.425 35.686C15.5744 35.6207 15.7144 35.574 15.845 35.546C15.985 35.518 16.0924 35.504 16.167 35.504C16.5217 35.504 16.8717 35.5833 17.217 35.742C17.5717 35.8913 17.8657 36.106 18.099 36.386C18.2297 36.554 18.3277 36.7313 18.393 36.918C18.4677 37.0953 18.519 37.282 18.547 37.478C18.5844 37.674 18.6077 37.8747 18.617 38.08C18.6264 38.276 18.6357 38.4767 18.645 38.682C18.6917 39.2793 18.6917 39.872 18.645 40.46C18.6357 40.5813 18.631 40.7213 18.631 40.88C18.631 41.0387 18.617 41.1973 18.589 41.356C18.5704 41.5053 18.5284 41.6407 18.463 41.762C18.407 41.874 18.309 41.944 18.169 41.972C17.973 42.0187 17.8097 42.028 17.679 42C17.5577 41.9813 17.4597 41.9393 17.385 41.874C17.3104 41.8087 17.2544 41.7247 17.217 41.622C17.1797 41.5193 17.147 41.4027 17.119 41.272C17.1004 41.1693 17.0817 41.0527 17.063 40.922C17.0537 40.782 17.0444 40.642 17.035 40.502C17.035 40.362 17.0304 40.2267 17.021 40.096C17.021 39.956 17.021 39.83 17.021 39.718C17.021 39.5407 17.0164 39.3447 17.007 39.13C16.9977 38.9153 16.9977 38.7147 17.007 38.528C17.007 38.0893 16.8904 37.758 16.657 37.534C16.433 37.3007 16.125 37.2027 15.733 37.24C15.4344 37.2773 15.173 37.3987 14.949 37.604C14.725 37.8 14.6177 38.0567 14.627 38.374C14.627 38.4953 14.627 38.6073 14.627 38.71C14.627 38.8127 14.6224 38.9153 14.613 39.018C14.613 39.1207 14.613 39.2327 14.613 39.354C14.613 39.4753 14.613 39.6107 14.613 39.76C14.613 40.068 14.613 40.3947 14.613 40.74C14.613 41.076 14.571 41.3513 14.487 41.566C14.4124 41.79 14.2864 41.944 14.109 42.028C13.9317 42.112 13.7217 42.0887 13.479 41.958C13.3764 41.902 13.2924 41.8273 13.227 41.734C13.171 41.6313 13.1244 41.524 13.087 41.412C13.059 41.3 13.0404 41.188 13.031 41.076C13.0217 40.9547 13.0124 40.8427 13.003 40.74C12.975 40.432 12.9564 40.1473 12.947 39.886C12.947 39.6153 12.947 39.326 12.947 39.018V37.002ZM21.448 36.106C21.728 35.966 22.022 35.868 22.33 35.812C22.638 35.7467 22.9413 35.7327 23.24 35.77C23.548 35.798 23.842 35.8773 24.122 36.008C24.402 36.1293 24.6633 36.3067 24.906 36.54C25.1487 36.7827 25.3353 37.0487 25.466 37.338C25.5967 37.6273 25.69 37.9493 25.746 38.304C25.7833 38.5467 25.844 38.7707 25.928 38.976C26.012 39.1813 26.1007 39.3867 26.194 39.592C26.2967 39.7973 26.39 40.0027 26.474 40.208C26.5673 40.4133 26.642 40.628 26.698 40.852C26.7447 41.0667 26.726 41.2767 26.642 41.482C26.5673 41.678 26.4087 41.7993 26.166 41.846C26.026 41.874 25.8907 41.8647 25.76 41.818C25.6387 41.762 25.5267 41.6873 25.424 41.594C25.3213 41.4913 25.228 41.384 25.144 41.272C25.0693 41.1507 24.9993 41.0387 24.934 40.936C24.7193 41.216 24.486 41.4353 24.234 41.594C23.982 41.7433 23.6787 41.8413 23.324 41.888C23.0253 41.9253 22.7407 41.9347 22.47 41.916C22.1993 41.8973 21.91 41.846 21.602 41.762C21.2007 41.6593 20.8693 41.482 20.608 41.23C20.356 40.9687 20.16 40.67 20.02 40.334C19.8893 39.9887 19.8193 39.62 19.81 39.228C19.8007 38.836 19.8473 38.4487 19.95 38.066C20.0807 37.562 20.2767 37.1513 20.538 36.834C20.7993 36.5167 21.1027 36.274 21.448 36.106ZM21.798 37.744C21.6673 37.8747 21.5647 38.0287 21.49 38.206C21.4153 38.3833 21.3687 38.57 21.35 38.766C21.3407 38.962 21.3593 39.158 21.406 39.354C21.4527 39.55 21.5273 39.7227 21.63 39.872C21.7233 40.0027 21.882 40.1147 22.106 40.208C22.33 40.292 22.5633 40.3433 22.806 40.362C23.086 40.3807 23.3287 40.306 23.534 40.138C23.7487 39.97 23.9073 39.76 24.01 39.508C24.122 39.2467 24.1733 38.9713 24.164 38.682C24.1547 38.3833 24.0753 38.1127 23.926 37.87C23.814 37.6927 23.6647 37.562 23.478 37.478C23.3007 37.394 23.1093 37.352 22.904 37.352C22.6987 37.3427 22.4933 37.3753 22.288 37.45C22.092 37.5153 21.9287 37.6133 21.798 37.744ZM29.7247 40.88C29.7154 40.9267 29.7061 40.9733 29.6967 41.02C29.6967 41.0573 29.6967 41.0993 29.6967 41.146L29.6127 41.44C29.5941 41.4773 29.5801 41.5007 29.5707 41.51L29.5287 41.594C29.4821 41.6967 29.3981 41.7807 29.2767 41.846C29.0527 41.958 28.8147 41.986 28.5627 41.93C28.4041 41.9113 28.2781 41.8647 28.1847 41.79C28.0914 41.7247 28.0261 41.6453 27.9887 41.552C27.9514 41.4587 27.9234 41.3653 27.9047 41.272C27.8767 41.1787 27.8627 41.0947 27.8627 41.02V33.18C27.8627 33.1147 27.8627 33.0587 27.8627 33.012C27.8721 32.956 27.8814 32.9047 27.8907 32.858C27.9001 32.7927 27.9094 32.7367 27.9187 32.69C27.9374 32.6433 27.9561 32.592 27.9747 32.536C28.0027 32.4427 28.0541 32.368 28.1287 32.312C28.2407 32.228 28.3481 32.1813 28.4507 32.172C28.5161 32.1533 28.5767 32.144 28.6327 32.144C28.6887 32.1347 28.7541 32.13 28.8287 32.13C28.9594 32.13 29.1087 32.1673 29.2767 32.242C29.4074 32.3167 29.5007 32.4193 29.5567 32.55C29.6501 32.7367 29.6967 32.9093 29.6967 33.068C29.7061 33.1613 29.7107 33.3013 29.7107 33.488C29.7201 33.6747 29.7247 33.8147 29.7247 33.908V33.964C29.7434 34.2627 29.7527 34.552 29.7527 34.832C29.7527 35.1027 29.7481 35.4013 29.7387 35.728C29.7387 36.0453 29.7341 36.3533 29.7247 36.652C29.7247 36.9413 29.7247 37.2307 29.7247 37.52V40.46C29.7247 40.4973 29.7247 40.5347 29.7247 40.572C29.7341 40.6 29.7387 40.6327 29.7387 40.67C29.7387 40.7633 29.7341 40.8333 29.7247 40.88ZM37.2965 35.756C37.3805 35.8867 37.4179 36.0267 37.4085 36.176C37.4085 36.3907 37.3712 36.5773 37.2965 36.736C37.2779 36.7827 37.2499 36.8433 37.2125 36.918C37.1845 36.9927 37.1519 37.072 37.1145 37.156C37.0865 37.24 37.0539 37.3193 37.0165 37.394C36.9792 37.4687 36.9512 37.5247 36.9325 37.562L36.9045 37.632C36.7739 37.9213 36.6479 38.2013 36.5265 38.472C36.4052 38.7427 36.2699 39.032 36.1205 39.34C35.9712 39.6387 35.8265 39.9327 35.6865 40.222C35.5559 40.502 35.4252 40.7773 35.2945 41.048C35.2572 41.1227 35.2245 41.1973 35.1965 41.272C35.1685 41.3373 35.1312 41.4073 35.0845 41.482L34.4125 42.924C34.2912 43.1667 34.1745 43.4047 34.0625 43.638C33.9599 43.8713 33.8432 44.1047 33.7125 44.338C33.6845 44.3847 33.6565 44.4267 33.6285 44.464C33.6099 44.5107 33.5912 44.5573 33.5725 44.604C33.5072 44.716 33.4092 44.8233 33.2785 44.926C33.1572 45.038 33.0265 45.0987 32.8865 45.108C32.6345 45.1267 32.4152 45.052 32.2285 44.884C32.1165 44.8187 32.0279 44.7253 31.9625 44.604C31.9252 44.52 31.9065 44.4127 31.9065 44.282C31.9159 44.226 31.9205 44.17 31.9205 44.114C31.9299 44.0673 31.9392 44.0207 31.9485 43.974C31.9672 43.9273 31.9812 43.8807 31.9905 43.834C31.9999 43.7873 32.0139 43.75 32.0325 43.722C32.0605 43.6473 32.0839 43.61 32.1025 43.61L33.1245 41.398C33.0779 41.2953 33.0312 41.1927 32.9845 41.09C32.9379 40.978 32.8959 40.88 32.8585 40.796C32.7372 40.5067 32.6065 40.2033 32.4665 39.886C32.3359 39.5593 32.2005 39.2373 32.0605 38.92C31.9205 38.5933 31.7759 38.276 31.6265 37.968C31.4772 37.66 31.3279 37.366 31.1785 37.086C31.1225 36.9927 31.0712 36.8947 31.0245 36.792C30.9779 36.68 30.9405 36.5727 30.9125 36.47C30.8845 36.358 30.8752 36.246 30.8845 36.134C30.8939 36.022 30.9359 35.91 31.0105 35.798C31.0852 35.658 31.1832 35.56 31.3045 35.504C31.4259 35.4387 31.5519 35.4107 31.6825 35.42C31.8225 35.42 31.9532 35.448 32.0745 35.504C32.1959 35.56 32.2939 35.6347 32.3685 35.728C32.5272 35.896 32.6532 36.0827 32.7465 36.288C32.8399 36.4933 32.9285 36.7033 33.0125 36.918C33.1899 37.2913 33.3719 37.6833 33.5585 38.094C33.7452 38.5047 33.9319 38.906 34.1185 39.298L34.8465 37.758C34.9212 37.6087 34.9865 37.464 35.0425 37.324C35.1079 37.184 35.1732 37.0487 35.2385 36.918C35.3132 36.7593 35.3832 36.596 35.4485 36.428C35.5232 36.26 35.6072 36.106 35.7005 35.966C35.7192 35.9287 35.7379 35.896 35.7565 35.868C35.7752 35.84 35.7939 35.8073 35.8125 35.77C35.8965 35.658 35.9712 35.5693 36.0365 35.504C36.0832 35.4667 36.1205 35.4387 36.1485 35.42C36.1859 35.392 36.2279 35.3733 36.2745 35.364C36.3399 35.3453 36.4005 35.336 36.4565 35.336C36.5219 35.3267 36.5825 35.3267 36.6385 35.336C36.7319 35.364 36.8439 35.406 36.9745 35.462C37.1145 35.518 37.2219 35.616 37.2965 35.756ZM41.613 39.536C41.4357 39.424 41.235 39.3353 41.011 39.27C40.7964 39.2047 40.5724 39.144 40.339 39.088C40.115 39.032 39.8957 38.9713 39.681 38.906C39.4664 38.8313 39.2704 38.7287 39.093 38.598C38.7104 38.3087 38.4864 37.954 38.421 37.534C38.365 37.1047 38.4584 36.6753 38.701 36.246C38.8317 36.022 39.0044 35.84 39.219 35.7C39.4337 35.5507 39.667 35.4387 39.919 35.364C40.1804 35.28 40.4464 35.2333 40.717 35.224C40.9877 35.2147 41.2444 35.2287 41.487 35.266C41.6457 35.294 41.8137 35.336 41.991 35.392C42.1684 35.4387 42.3317 35.504 42.481 35.588C42.6397 35.672 42.7797 35.7793 42.901 35.91C43.0317 36.0313 43.125 36.1853 43.181 36.372C43.2184 36.4933 43.223 36.61 43.195 36.722C43.1764 36.834 43.1297 36.9273 43.055 37.002C42.9897 37.0767 42.901 37.1327 42.789 37.17C42.6864 37.2073 42.5744 37.2167 42.453 37.198C42.313 37.17 42.1824 37.128 42.061 37.072C41.9397 37.016 41.8184 36.9553 41.697 36.89C41.5757 36.8247 41.4497 36.7687 41.319 36.722C41.1977 36.6753 41.067 36.652 40.927 36.652C40.7124 36.6427 40.535 36.68 40.395 36.764C40.255 36.848 40.157 36.9507 40.101 37.072C40.0544 37.1933 40.059 37.324 40.115 37.464C40.1804 37.604 40.311 37.7253 40.507 37.828C40.6844 37.9213 40.8804 37.996 41.095 38.052C41.3097 38.108 41.5197 38.164 41.725 38.22C41.9397 38.276 42.145 38.3413 42.341 38.416C42.5464 38.4907 42.7284 38.5933 42.887 38.724C43.195 38.976 43.3817 39.27 43.447 39.606C43.5217 39.942 43.503 40.2733 43.391 40.6C43.279 40.9267 43.083 41.216 42.803 41.468C42.5324 41.72 42.2104 41.888 41.837 41.972C41.5664 42.028 41.2724 42.056 40.955 42.056C40.647 42.056 40.339 42.0233 40.031 41.958C39.7324 41.8927 39.443 41.79 39.163 41.65C38.8924 41.51 38.6637 41.3327 38.477 41.118C38.3464 40.9687 38.2764 40.8007 38.267 40.614C38.267 40.418 38.3044 40.25 38.379 40.11C38.463 39.9607 38.5797 39.858 38.729 39.802C38.8784 39.746 39.0464 39.7787 39.233 39.9C39.3824 40.0027 39.5597 40.1053 39.765 40.208C39.9704 40.3013 40.1757 40.376 40.381 40.432C40.5864 40.488 40.7824 40.516 40.969 40.516C41.165 40.516 41.333 40.474 41.473 40.39C41.6784 40.2593 41.7857 40.11 41.795 39.942C41.8044 39.7647 41.7437 39.6293 41.613 39.536ZM46.3885 36.694C46.3885 36.9553 46.3885 37.2493 46.3885 37.576C46.3978 37.9027 46.4025 38.2433 46.4025 38.598C46.4025 38.9433 46.4025 39.2887 46.4025 39.634C46.4025 39.97 46.3978 40.2827 46.3885 40.572C46.3791 40.712 46.3651 40.866 46.3465 41.034C46.3278 41.1927 46.2905 41.342 46.2345 41.482C46.1785 41.622 46.0898 41.7387 45.9685 41.832C45.8565 41.916 45.7025 41.9533 45.5065 41.944C45.2171 41.9253 45.0071 41.7993 44.8765 41.566C44.7551 41.3327 44.6851 41.006 44.6665 40.586C44.6665 40.3713 44.6618 40.124 44.6525 39.844C44.6525 39.564 44.6478 39.2793 44.6385 38.99C44.6385 38.7007 44.6385 38.4207 44.6385 38.15C44.6385 37.87 44.6385 37.618 44.6385 37.394C44.6385 37.2633 44.6338 37.1047 44.6245 36.918C44.6245 36.7313 44.6291 36.54 44.6385 36.344C44.6478 36.148 44.6711 35.9613 44.7085 35.784C44.7458 35.5973 44.8065 35.4433 44.8905 35.322C44.9558 35.2473 45.0491 35.1913 45.1705 35.154C45.2918 35.1073 45.4178 35.084 45.5485 35.084C45.6885 35.084 45.8191 35.1073 45.9405 35.154C46.0711 35.2007 46.1645 35.266 46.2205 35.35C46.2578 35.406 46.2858 35.4853 46.3045 35.588C46.3231 35.6907 46.3371 35.8073 46.3465 35.938C46.3651 36.0593 46.3745 36.19 46.3745 36.33C46.3838 36.4607 46.3885 36.582 46.3885 36.694ZM45.8565 33.866C45.5671 33.9407 45.3245 33.9127 45.1285 33.782C44.9418 33.642 44.8251 33.4367 44.7785 33.166C44.7411 32.97 44.7551 32.7973 44.8205 32.648C44.8858 32.4987 44.9838 32.3867 45.1145 32.312C45.2451 32.228 45.3945 32.1907 45.5625 32.2C45.7305 32.2093 45.8985 32.2747 46.0665 32.396C46.2251 32.508 46.3371 32.6387 46.4025 32.788C46.4771 32.9373 46.5005 33.082 46.4725 33.222C46.4538 33.362 46.3931 33.4927 46.2905 33.614C46.1878 33.726 46.0431 33.81 45.8565 33.866ZM50.9646 39.536C50.7873 39.424 50.5866 39.3353 50.3626 39.27C50.1479 39.2047 49.9239 39.144 49.6906 39.088C49.4666 39.032 49.2473 38.9713 49.0326 38.906C48.8179 38.8313 48.6219 38.7287 48.4446 38.598C48.0619 38.3087 47.8379 37.954 47.7726 37.534C47.7166 37.1047 47.8099 36.6753 48.0526 36.246C48.1833 36.022 48.3559 35.84 48.5706 35.7C48.7853 35.5507 49.0186 35.4387 49.2706 35.364C49.5319 35.28 49.7979 35.2333 50.0686 35.224C50.3393 35.2147 50.5959 35.2287 50.8386 35.266C50.9973 35.294 51.1653 35.336 51.3426 35.392C51.5199 35.4387 51.6833 35.504 51.8326 35.588C51.9913 35.672 52.1313 35.7793 52.2526 35.91C52.3833 36.0313 52.4766 36.1853 52.5326 36.372C52.5699 36.4933 52.5746 36.61 52.5466 36.722C52.5279 36.834 52.4813 36.9273 52.4066 37.002C52.3413 37.0767 52.2526 37.1327 52.1406 37.17C52.0379 37.2073 51.9259 37.2167 51.8046 37.198C51.6646 37.17 51.5339 37.128 51.4126 37.072C51.2913 37.016 51.1699 36.9553 51.0486 36.89C50.9273 36.8247 50.8013 36.7687 50.6706 36.722C50.5493 36.6753 50.4186 36.652 50.2786 36.652C50.0639 36.6427 49.8866 36.68 49.7466 36.764C49.6066 36.848 49.5086 36.9507 49.4526 37.072C49.4059 37.1933 49.4106 37.324 49.4666 37.464C49.5319 37.604 49.6626 37.7253 49.8586 37.828C50.0359 37.9213 50.2319 37.996 50.4466 38.052C50.6613 38.108 50.8713 38.164 51.0766 38.22C51.2913 38.276 51.4966 38.3413 51.6926 38.416C51.8979 38.4907 52.0799 38.5933 52.2386 38.724C52.5466 38.976 52.7333 39.27 52.7986 39.606C52.8733 39.942 52.8546 40.2733 52.7426 40.6C52.6306 40.9267 52.4346 41.216 52.1546 41.468C51.8839 41.72 51.5619 41.888 51.1886 41.972C50.9179 42.028 50.6239 42.056 50.3066 42.056C49.9986 42.056 49.6906 42.0233 49.3826 41.958C49.0839 41.8927 48.7946 41.79 48.5146 41.65C48.2439 41.51 48.0153 41.3327 47.8286 41.118C47.6979 40.9687 47.6279 40.8007 47.6186 40.614C47.6186 40.418 47.6559 40.25 47.7306 40.11C47.8146 39.9607 47.9313 39.858 48.0806 39.802C48.2299 39.746 48.3979 39.7787 48.5846 39.9C48.7339 40.0027 48.9113 40.1053 49.1166 40.208C49.3219 40.3013 49.5273 40.376 49.7326 40.432C49.9379 40.488 50.1339 40.516 50.3206 40.516C50.5166 40.516 50.6846 40.474 50.8246 40.39C51.0299 40.2593 51.1373 40.11 51.1466 39.942C51.1559 39.7647 51.0953 39.6293 50.9646 39.536Z" fill="#36423C"/>
<rect x="15" y="1" width="26" height="25.48" stroke="#36423C" stroke-width="2" stroke-linejoin="round"/>
<path d="M18 16.8598L22.7755 12.1798L28.6122 16.8598L36.0408 8.53979" stroke="#36423C" stroke-width="2" stroke-linecap="round" stroke-linejoin="round"/>
</svg>
