<svg width="38" height="30" viewBox="0 0 38 30" fill="none" xmlns="http://www.w3.org/2000/svg">
<path d="M0 3.72516C0 2.73719 0.392471 1.78968 1.09107 1.09107C1.78968 0.392471 2.73719 0 3.72516 0H33.5265C34.5144 0 35.4619 0.392471 36.1605 1.09107C36.8591 1.78968 37.2516 2.73719 37.2516 3.72516V26.0761C37.2516 27.0641 36.8591 28.0116 36.1605 28.7102C35.4619 29.4088 34.5144 29.8013 33.5265 29.8013H3.72516C2.73719 29.8013 1.78968 29.4088 1.09107 28.7102C0.392471 28.0116 0 27.0641 0 26.0761V3.72516ZM6.55442 3.72516L18.6258 14.2879L30.6972 3.72516H6.55442ZM33.5265 6.20053L19.8533 18.1658C19.5136 18.4633 19.0774 18.6274 18.6258 18.6274C18.1742 18.6274 17.738 18.4633 17.3984 18.1658L3.72516 6.20053V26.0761H33.5265V6.20053Z" fill="#36423C"/>
</svg>
