<svg width="47" height="44" viewBox="0 0 47 44" fill="none" xmlns="http://www.w3.org/2000/svg">
<path fill-rule="evenodd" clip-rule="evenodd" d="M43.5568 15.3615C41.8065 10.7221 39.6353 7.83834 35.7687 4.95327C31.5838 1.83043 24.5743 1.45249 22.0881 1.44923C18.2507 1.44418 13.8842 2.7947 12.0432 3.54125C10.2917 4.2513 9.1927 4.92715 7.61711 5.98049C7.02269 6.37791 6.09229 7.15198 5.56793 7.63684C2.96474 10.0444 0.593644 13.7072 1.74386 17.4051C2.12547 18.6319 2.87064 19.7267 3.72427 20.6701C6.37576 23.6003 10.2447 24.9155 13.7649 26.4536C16.9572 27.8491 20.0688 29.2704 23.1025 30.995C25.2743 32.2288 27.4315 33.6294 29.6256 34.8238C30.6311 35.3708 32.6874 36.5428 34.1378 36.9505C35.396 37.3043 36.7422 37.3947 38.0386 37.238C38.8938 37.1352 39.7698 36.9196 40.5572 36.5636C42.2061 35.8178 43.3275 34.4335 44.101 32.828C45.3928 30.1443 45.6226 27.3403 45.5352 24.537C45.4444 21.6258 45.3284 20.0575 43.5568 15.3615Z" fill="#D28F54" stroke="black" stroke-width="1.5"/>
<path fill-rule="evenodd" clip-rule="evenodd" d="M24.3194 31.7954L19.2753 29.0302L13.7353 26.4341C13.6759 26.4346 11.2267 29.0499 10.891 29.3857C9.27689 31.0036 7.27047 33.7064 7.68829 36.2183C7.91504 37.5813 8.86271 38.7926 9.80651 39.7383C14.053 43.9938 20.7712 44.6436 23.134 38.1338C23.7629 36.4014 24.3194 33.6362 24.3194 31.7954Z" fill="#F5DEC7" stroke="black" stroke-width="1.5"/>
<path fill-rule="evenodd" clip-rule="evenodd" d="M38.1944 12.2325C36.4626 11.0579 34.334 12.0807 34.6137 14.4149C34.8126 16.0799 37.8901 18.3182 39.118 17.4893C41.6406 15.7863 39.3635 13.0253 38.1944 12.2325Z" fill="#F5DEC7" stroke="black" stroke-width="1.5"/>
<path fill-rule="evenodd" clip-rule="evenodd" d="M42.5996 23.3114C42.7361 22.5929 42.4212 21.6881 41.4543 20.9806C40.3906 20.202 38.3508 20.6782 39.1173 23.1738C40.0999 26.3736 42.5144 25.0132 42.5996 23.3114Z" fill="#F5DEC7" stroke="black" stroke-width="1.5"/>
</svg>
