<svg width="40" height="44" viewBox="0 0 40 44" fill="none" xmlns="http://www.w3.org/2000/svg">
<path d="M19.7626 4.3917C17.4331 4.3917 15.199 5.31709 13.5518 6.96429C11.9046 8.6115 10.9792 10.8456 10.9792 13.1751C10.9792 15.5046 11.9046 17.7387 13.5518 19.3859C15.199 21.0331 17.4331 21.9585 19.7626 21.9585C22.0921 21.9585 24.3262 21.0331 25.9734 19.3859C27.6206 17.7387 28.546 15.5046 28.546 13.1751C28.546 10.8456 27.6206 8.6115 25.9734 6.96429C24.3262 5.31709 22.0921 4.3917 19.7626 4.3917ZM6.58754 13.1751C6.58754 9.68084 7.97563 6.3297 10.4464 3.85889C12.9172 1.38809 16.2684 0 19.7626 0C23.2569 0 26.608 1.38809 29.0788 3.85889C31.5496 6.3297 32.9377 9.68084 32.9377 13.1751C32.9377 16.6693 31.5496 20.0205 29.0788 22.4913C26.608 24.9621 23.2569 26.3502 19.7626 26.3502C16.2684 26.3502 12.9172 24.9621 10.4464 22.4913C7.97563 20.0205 6.58754 16.6693 6.58754 13.1751ZM10.9792 35.1336C9.23212 35.1336 7.55655 35.8276 6.32114 37.063C5.08574 38.2984 4.3917 39.974 4.3917 41.7211C4.3917 42.3035 4.16035 42.862 3.74855 43.2738C3.33675 43.6856 2.77822 43.917 2.19585 43.917C1.61347 43.917 1.05495 43.6856 0.643149 43.2738C0.231348 42.862 0 42.3035 0 41.7211C0 38.8092 1.15674 36.0166 3.21575 33.9576C5.27475 31.8986 8.06737 30.7419 10.9792 30.7419H28.546C31.4579 30.7419 34.2505 31.8986 36.3095 33.9576C38.3685 36.0166 39.5253 38.8092 39.5253 41.7211C39.5253 42.3035 39.2939 42.862 38.8821 43.2738C38.4703 43.6856 37.9118 43.917 37.3294 43.917C36.747 43.917 36.1885 43.6856 35.7767 43.2738C35.3649 42.862 35.1336 42.3035 35.1336 41.7211C35.1336 39.974 34.4395 38.2984 33.2041 37.063C31.9687 35.8276 30.2932 35.1336 28.546 35.1336H10.9792Z" fill="#36423C"/>
</svg>
