<svg width="52" height="55" viewBox="0 0 52 55" fill="none" xmlns="http://www.w3.org/2000/svg">
<path d="M18.2099 33.522C18.3125 33.6433 18.3639 33.7693 18.3639 33.9C18.3639 33.956 18.3592 34.0167 18.3499 34.082C18.3499 34.138 18.3452 34.1893 18.3359 34.236C18.3079 34.3387 18.2472 34.4367 18.1539 34.53C18.0792 34.586 17.9765 34.628 17.8459 34.656C17.7805 34.6747 17.7152 34.6887 17.6499 34.698C17.5845 34.7073 17.5145 34.7213 17.4399 34.74C17.3745 34.7493 17.3092 34.754 17.2439 34.754C17.1785 34.754 17.1085 34.754 17.0339 34.754H16.3199C16.1519 34.7633 15.9839 34.768 15.8159 34.768C15.6572 34.768 15.4985 34.768 15.3399 34.768C15.3492 35.0573 15.3539 35.37 15.3539 35.706C15.3539 36.0327 15.3492 36.4153 15.3399 36.854C15.3399 37.2927 15.3352 37.8013 15.3259 38.38C15.3259 38.9587 15.3259 39.6307 15.3259 40.396V41.46C15.3259 41.5533 15.3305 41.6233 15.3399 41.67C15.3399 41.7073 15.3399 41.7447 15.3399 41.782C15.3399 41.81 15.3352 41.8473 15.3259 41.894C15.3072 41.978 15.2932 42.076 15.2839 42.188C15.2839 42.2347 15.2792 42.2813 15.2699 42.328C15.2605 42.3653 15.2465 42.4073 15.2279 42.454C15.1905 42.4913 15.1719 42.5193 15.1719 42.538L15.1299 42.622C15.0832 42.7153 14.9945 42.804 14.8639 42.888C14.6585 42.9907 14.4299 43.014 14.1779 42.958C14.0192 42.9393 13.8979 42.8973 13.8139 42.832C13.7299 42.748 13.6692 42.664 13.6319 42.58C13.5759 42.4773 13.5432 42.3793 13.5339 42.286C13.5059 42.202 13.4919 42.1133 13.4919 42.02V34.824C13.4359 34.824 13.3192 34.824 13.1419 34.824C12.9645 34.824 12.7732 34.824 12.5679 34.824C12.3719 34.8147 12.1852 34.8053 12.0079 34.796C11.8305 34.7867 11.7092 34.7773 11.6439 34.768C11.5879 34.7587 11.4992 34.7447 11.3779 34.726C11.2659 34.7073 11.1725 34.6887 11.0979 34.67C10.9019 34.614 10.7479 34.5253 10.6359 34.404C10.5332 34.2827 10.4819 34.1473 10.4819 33.998C10.4819 33.942 10.4819 33.886 10.4819 33.83C10.4819 33.774 10.4912 33.7227 10.5099 33.676C10.5379 33.564 10.6125 33.4707 10.7339 33.396C10.7712 33.368 10.8272 33.3353 10.9019 33.298C10.9859 33.2513 11.0652 33.2187 11.1399 33.2C11.2519 33.1627 11.3919 33.1347 11.5599 33.116C11.6345 33.1067 11.7092 33.102 11.7839 33.102C11.8585 33.102 11.9379 33.102 12.0219 33.102C12.3485 33.102 12.6565 33.102 12.9459 33.102C13.2445 33.102 13.5572 33.0973 13.8839 33.088C14.4252 33.0787 14.9619 33.0787 15.4939 33.088C16.0352 33.088 16.5719 33.0973 17.1039 33.116C17.2252 33.1253 17.3419 33.1393 17.4539 33.158C17.5659 33.1767 17.6779 33.2093 17.7899 33.256C17.8739 33.284 17.9532 33.3213 18.0279 33.368C18.1025 33.4053 18.1632 33.4567 18.2099 33.522ZM19.4617 37.106C19.7417 36.966 20.0357 36.868 20.3437 36.812C20.6517 36.7467 20.955 36.7327 21.2537 36.77C21.5617 36.798 21.8557 36.8773 22.1357 37.008C22.4157 37.1293 22.677 37.3067 22.9197 37.54C23.1623 37.7827 23.349 38.0487 23.4797 38.338C23.6103 38.6273 23.7037 38.9493 23.7597 39.304C23.797 39.5467 23.8577 39.7707 23.9417 39.976C24.0257 40.1813 24.1143 40.3867 24.2077 40.592C24.3103 40.7973 24.4037 41.0027 24.4877 41.208C24.581 41.4133 24.6557 41.628 24.7117 41.852C24.7583 42.0667 24.7397 42.2767 24.6557 42.482C24.581 42.678 24.4223 42.7993 24.1797 42.846C24.0397 42.874 23.9043 42.8647 23.7737 42.818C23.6523 42.762 23.5403 42.6873 23.4377 42.594C23.335 42.4913 23.2417 42.384 23.1577 42.272C23.083 42.1507 23.013 42.0387 22.9477 41.936C22.733 42.216 22.4997 42.4353 22.2477 42.594C21.9957 42.7433 21.6923 42.8413 21.3377 42.888C21.039 42.9253 20.7543 42.9347 20.4837 42.916C20.213 42.8973 19.9237 42.846 19.6157 42.762C19.2143 42.6593 18.883 42.482 18.6217 42.23C18.3697 41.9687 18.1737 41.67 18.0337 41.334C17.903 40.9887 17.833 40.62 17.8237 40.228C17.8143 39.836 17.861 39.4487 17.9637 39.066C18.0943 38.562 18.2903 38.1513 18.5517 37.834C18.813 37.5167 19.1163 37.274 19.4617 37.106ZM19.8117 38.744C19.681 38.8747 19.5783 39.0287 19.5037 39.206C19.429 39.3833 19.3823 39.57 19.3637 39.766C19.3543 39.962 19.373 40.158 19.4197 40.354C19.4663 40.55 19.541 40.7227 19.6437 40.872C19.737 41.0027 19.8957 41.1147 20.1197 41.208C20.3437 41.292 20.577 41.3433 20.8197 41.362C21.0997 41.3807 21.3423 41.306 21.5477 41.138C21.7623 40.97 21.921 40.76 22.0237 40.508C22.1357 40.2467 22.187 39.9713 22.1777 39.682C22.1683 39.3833 22.089 39.1127 21.9397 38.87C21.8277 38.6927 21.6783 38.562 21.4917 38.478C21.3143 38.394 21.123 38.352 20.9177 38.352C20.7123 38.3427 20.507 38.3753 20.3017 38.45C20.1057 38.5153 19.9423 38.6133 19.8117 38.744ZM25.9044 34.152C25.9231 33.816 26.0257 33.5453 26.2124 33.34C26.4084 33.1347 26.6837 33.0787 27.0384 33.172C27.2064 33.2187 27.3277 33.2887 27.4024 33.382C27.4864 33.4753 27.5424 33.5873 27.5704 33.718C27.6077 33.8393 27.6264 33.9747 27.6264 34.124C27.6264 34.264 27.6264 34.404 27.6264 34.544V36.476C27.6171 36.5507 27.6124 36.6253 27.6124 36.7C27.6217 36.7653 27.6264 36.826 27.6264 36.882V37.064H27.9764C28.0791 37.064 28.1771 37.064 28.2704 37.064C28.3731 37.064 28.4617 37.0593 28.5364 37.05C29.0497 37.05 29.4884 37.1247 29.8524 37.274C30.2257 37.4233 30.5244 37.6333 30.7484 37.904C30.9817 38.1653 31.1497 38.4827 31.2524 38.856C31.3644 39.22 31.4157 39.6213 31.4064 40.06C31.3971 40.5827 31.3131 41.0307 31.1544 41.404C30.9957 41.7773 30.7717 42.0853 30.4824 42.328C30.1931 42.5707 29.8431 42.7527 29.4324 42.874C29.0311 42.986 28.5784 43.042 28.0744 43.042C27.4957 43.042 27.0571 43.0373 26.7584 43.028C26.4597 43.0187 26.2451 42.9347 26.1144 42.776C25.9931 42.6173 25.9277 42.342 25.9184 41.95C25.9091 41.558 25.9044 40.984 25.9044 40.228C25.9044 39.5 25.9044 38.7813 25.9044 38.072C25.9137 37.3627 25.9137 36.6487 25.9044 35.93C25.9044 35.8367 25.8997 35.7387 25.8904 35.636C25.8904 35.5333 25.8904 35.4167 25.8904 35.286C25.8904 35.1553 25.8904 35.0013 25.8904 34.824C25.8904 34.6373 25.8951 34.4133 25.9044 34.152ZM28.5224 41.474C29.0357 41.446 29.3904 41.306 29.5864 41.054C29.6891 40.914 29.7684 40.746 29.8244 40.55C29.8804 40.354 29.9037 40.158 29.8944 39.962C29.8851 39.766 29.8431 39.5793 29.7684 39.402C29.7031 39.2153 29.5957 39.0613 29.4464 38.94C29.3157 38.828 29.1851 38.7487 29.0544 38.702C28.9237 38.646 28.7884 38.6133 28.6484 38.604C28.5084 38.5853 28.3591 38.5807 28.2004 38.59C28.0417 38.59 27.8597 38.5947 27.6544 38.604V40.284L27.6264 41.446C27.7197 41.4553 27.8177 41.4647 27.9204 41.474C28.0977 41.4927 28.2984 41.4927 28.5224 41.474ZM34.3966 41.88C34.3873 41.9267 34.3779 41.9733 34.3686 42.02C34.3686 42.0573 34.3686 42.0993 34.3686 42.146L34.2846 42.44C34.2659 42.4773 34.2519 42.5007 34.2426 42.51L34.2006 42.594C34.1539 42.6967 34.0699 42.7807 33.9486 42.846C33.7246 42.958 33.4866 42.986 33.2346 42.93C33.0759 42.9113 32.9499 42.8647 32.8566 42.79C32.7633 42.7247 32.6979 42.6453 32.6606 42.552C32.6233 42.4587 32.5953 42.3653 32.5766 42.272C32.5486 42.1787 32.5346 42.0947 32.5346 42.02V34.18C32.5346 34.1147 32.5346 34.0587 32.5346 34.012C32.5439 33.956 32.5533 33.9047 32.5626 33.858C32.5719 33.7927 32.5813 33.7367 32.5906 33.69C32.6093 33.6433 32.6279 33.592 32.6466 33.536C32.6746 33.4427 32.7259 33.368 32.8006 33.312C32.9126 33.228 33.0199 33.1813 33.1226 33.172C33.1879 33.1533 33.2486 33.144 33.3046 33.144C33.3606 33.1347 33.4259 33.13 33.5006 33.13C33.6313 33.13 33.7806 33.1673 33.9486 33.242C34.0793 33.3167 34.1726 33.4193 34.2286 33.55C34.3219 33.7367 34.3686 33.9093 34.3686 34.068C34.3779 34.1613 34.3826 34.3013 34.3826 34.488C34.3919 34.6747 34.3966 34.8147 34.3966 34.908V34.964C34.4153 35.2627 34.4246 35.552 34.4246 35.832C34.4246 36.1027 34.4199 36.4013 34.4106 36.728C34.4106 37.0453 34.4059 37.3533 34.3966 37.652C34.3966 37.9413 34.3966 38.2307 34.3966 38.52V41.46C34.3966 41.4973 34.3966 41.5347 34.3966 41.572C34.4059 41.6 34.4106 41.6327 34.4106 41.67C34.4106 41.7633 34.4059 41.8333 34.3966 41.88ZM40.3864 41.082C40.4984 41.054 40.6104 41.0353 40.7224 41.026C40.8438 41.0167 40.9511 41.0307 41.0444 41.068C41.1471 41.1053 41.2311 41.1707 41.2964 41.264C41.3618 41.348 41.3944 41.4693 41.3944 41.628C41.3944 41.74 41.3664 41.8473 41.3104 41.95C41.2544 42.0527 41.1844 42.146 41.1004 42.23C41.0164 42.314 40.9231 42.3887 40.8204 42.454C40.7178 42.51 40.6198 42.5567 40.5264 42.594C40.2558 42.7153 39.9431 42.8087 39.5884 42.874C39.2431 42.9393 38.8838 42.9627 38.5104 42.944C38.0064 42.9253 37.5211 42.8273 37.0544 42.65C36.5971 42.4633 36.2378 42.16 35.9764 41.74C35.7338 41.3293 35.5891 40.872 35.5424 40.368C35.4958 39.864 35.5191 39.388 35.6124 38.94C35.7151 38.3987 35.8878 37.96 36.1304 37.624C36.3824 37.2787 36.6811 37.0033 37.0264 36.798C37.4464 36.5553 37.9178 36.4293 38.4404 36.42C38.9631 36.4107 39.4624 36.5133 39.9384 36.728C40.2558 36.868 40.5404 37.0593 40.7924 37.302C41.0444 37.5353 41.2358 37.82 41.3664 38.156C41.4038 38.24 41.4318 38.3427 41.4504 38.464C41.4784 38.5853 41.4971 38.716 41.5064 38.856C41.5158 38.9867 41.5158 39.1173 41.5064 39.248C41.4971 39.3787 41.4738 39.4953 41.4364 39.598C41.3804 39.766 41.3104 39.8967 41.2264 39.99C41.1424 40.0833 41.0351 40.1533 40.9044 40.2C40.7738 40.2467 40.6151 40.2793 40.4284 40.298C40.2511 40.3073 40.0364 40.3167 39.7844 40.326C39.5604 40.3353 39.3504 40.34 39.1544 40.34C38.9584 40.34 38.7578 40.34 38.5524 40.34C38.3471 40.3307 38.1324 40.326 37.9084 40.326C37.6938 40.3167 37.4511 40.3073 37.1804 40.298C37.1524 40.4847 37.1758 40.648 37.2504 40.788C37.3344 40.9187 37.4464 41.0307 37.5864 41.124C37.7264 41.208 37.8851 41.2733 38.0624 41.32C38.2398 41.3667 38.4124 41.3947 38.5804 41.404C38.8978 41.4227 39.2011 41.3993 39.4904 41.334C39.7798 41.2593 40.0784 41.1753 40.3864 41.082ZM39.7844 38.366C39.6071 38.1607 39.4204 38.0113 39.2244 37.918C39.0751 37.8527 38.9164 37.8247 38.7484 37.834C38.5898 37.834 38.4358 37.8573 38.2864 37.904C38.0158 37.9693 37.7871 38.1093 37.6004 38.324C37.5818 38.3427 37.5491 38.3893 37.5024 38.464C37.4558 38.5293 37.4091 38.5993 37.3624 38.674C37.3251 38.7487 37.2971 38.8187 37.2784 38.884C37.2598 38.9493 37.2691 38.982 37.3064 38.982H40.0504C40.0411 38.8513 40.0178 38.744 39.9804 38.66C39.9431 38.5667 39.8778 38.4687 39.7844 38.366Z" fill="#36423C"/>
<path d="M11.2624 2.2019C10.7112 2.16745 10.2364 2.58636 10.202 3.13757C10.1675 3.68878 10.5864 4.16355 11.1376 4.198L11.2624 2.2019ZM11.1376 4.198L15.5376 4.473L15.6624 2.4769L11.2624 2.2019L11.1376 4.198Z" fill="#36423C"/>
<path d="M39.8624 4.198C40.4136 4.16351 40.8325 3.68872 40.798 3.13751C40.7636 2.5863 40.2888 2.16742 39.7375 2.2019L39.8624 4.198ZM39.7375 2.2019L35.3376 2.47718L35.4624 4.47328L39.8624 4.198L39.7375 2.2019Z" fill="#36423C"/>
<path d="M9 21.8999H42" stroke="#36423C" stroke-width="2" stroke-linecap="round"/>
<path d="M17.25 27.3999V21.8999" stroke="#36423C" stroke-width="2" stroke-linecap="round"/>
<path d="M34.3 27.3999V21.8999" stroke="#36423C" stroke-width="2" stroke-linecap="round"/>
<path d="M14.5 1H36.5L34.3 17.5H16.7L14.5 1Z" stroke="#36423C" stroke-width="2" stroke-linejoin="round"/>
</svg>
