<svg width="53" height="46" viewBox="0 0 53 46" fill="none" xmlns="http://www.w3.org/2000/svg">
<path fill-rule="evenodd" clip-rule="evenodd" d="M26.4833 4.44713C38.7115 4.2159 51.2337 12.4449 51.3341 24.381C51.4345 36.3196 43.4878 42.9508 32.9322 44.2728C27.7535 44.9215 21.3294 45.4726 16.3933 43.7724C1.88747 38.7761 -3.76731 22.0187 8.19429 10.699C12.5998 6.52996 20.5832 4.55872 26.4833 4.44713Z" fill="#DF5C33" stroke="black" stroke-width="1.5"/>
<path fill-rule="evenodd" clip-rule="evenodd" d="M28.9287 1.5316C28.8833 1.09182 32.0952 5.1836 32.2243 5.2267C32.9277 5.46111 36.2384 5.8033 38.3027 5.8312C39.1025 5.84201 42.2914 5.0371 42.3177 5.12233C42.4538 5.56628 38.4492 7.8699 36.9207 7.8699C36.5173 7.8699 34.5175 8.03971 34.9472 8.0084C34.9897 8.00531 35.4994 9.19408 35.6052 9.39342C36.4794 11.0414 37.0616 13.6155 36.7129 13.964C36.6713 14.0057 35.6126 13.0135 35.1203 12.6136C33.8291 11.5643 31.5514 9.96637 30.6888 9.67041C30.2059 9.50463 25.664 10.473 24.5955 10.8131C23.945 11.0201 22.5335 11.521 22.5181 11.5056C22.2008 11.1879 24.7411 8.86709 25.3916 8.21612C25.4473 8.16075 26.395 7.42642 26.1881 7.41973C24.9362 7.37957 20.9297 3.79427 20.954 3.5712C20.969 3.43911 24.2693 4.59427 24.7397 4.60649C25.4566 4.62507 27.9646 4.82259 28.6114 4.99595C28.8253 5.05324 29.1426 4.5396 29.0331 3.20522C28.924 1.87604 29.0251 2.46977 28.9287 1.5316Z" fill="#ACC13A" stroke="black" stroke-width="1.5"/>
</svg>
